<?xml version="1.0" standalone="no"?><!DOCTYPE svg PUBLIC "-//W3C//DTD SVG 1.1//EN" "http://www.w3.org/Graphics/SVG/1.1/DTD/svg11.dtd"><svg t="1710214760930" class="icon" viewBox="0 0 1024 1024" version="1.1" xmlns="http://www.w3.org/2000/svg" p-id="10369" xmlns:xlink="http://www.w3.org/1999/xlink" width="200" height="200"><path d="M288.914286 151.625143a16.274286 16.274286 0 0 1 23.990857 0l250.477714 267.849143a6.290286 6.290286 0 0 1 1.206857 6.582857 5.668571 5.668571 0 0 1-5.193143 3.730286l-167.643428 0.365714-0.438857 240.237714a18.688 18.688 0 0 1-5.010286 12.763429 16.310857 16.310857 0 0 1-11.885714 5.266285l-152.612572 0.365715a16.384 16.384 0 0 1-11.995428-5.302857 18.651429 18.651429 0 0 1-5.010286-12.836572l0.512-240.018286-163.072 0.365715a5.705143 5.705143 0 0 1-5.229714-3.730286 6.473143 6.473143 0 0 1 1.170285-6.582857L288.914286 151.625143z m444.16 757.430857a16.310857 16.310857 0 0 1-23.954286-0.073143l-248.356571-265.654857a6.4 6.4 0 0 1-1.243429-6.582857 5.632 5.632 0 0 1 5.229714-3.657143l167.606857-0.438857 0.512-240.164572c0-4.644571 1.645714-9.252571 4.973715-12.8a16.457143 16.457143 0 0 1 11.922285-5.302857l152.576-0.329143a16.237714 16.237714 0 0 1 12.032 5.339429c3.291429 3.510857 4.973714 8.155429 4.937143 12.8l-0.475428 240.054857 162.925714-0.365714a5.595429 5.595429 0 0 1 5.229714 3.730286 6.290286 6.290286 0 0 1-1.243428 6.582857l-252.708572 266.861714z" fill="#2c2c2c" p-id="10370"></path></svg>